<?xml version="1.0" encoding="UTF-8"?>
<svg id="Layer_1" data-name="Layer 1" xmlns="http://www.w3.org/2000/svg" viewBox="0 0 171.96 171.96">
  <defs>
    <style>
      .cls-1 {
        fill: #333;
        stroke-width: 0px;
      }
    </style>
  </defs>
  <path class="cls-1" d="M85.98,171.96C38.57,171.96,0,133.39,0,85.98S38.57,0,85.98,0s85.98,38.57,85.98,85.98-38.57,85.98-85.98,85.98ZM85.98,8C42.98,8,8,42.98,8,85.98s34.98,77.98,77.98,77.98,77.98-34.98,77.98-77.98S128.97,8,85.98,8Z"/>
  <g>
    <path class="cls-1" d="M137.06,73.31l-.14.06c-20.47,9.54-33.56,30.09-33.56,52.67v6.88c0,9.59-7.63,17.59-17.22,17.71-9.74.13-17.68-7.73-17.68-17.45v-7.14c0-22.59-13.09-43.13-33.56-52.67-6.35-2.96-10.08-9.26-10.08-15.83,0-2.47.53-4.98,1.64-7.37,4.08-8.74,14.46-12.51,23.2-8.44l7.98,3.72c3.49,1.63,7.09,2.94,10.76,3.93v37.25c0,9.64,7.81,17.45,17.45,17.45s17.45-7.81,17.45-17.45v-37.22c3.71-.99,7.35-2.32,10.89-3.97l8.12-3.78c8.74-4.07,19.12-.29,23.19,8.44,4.08,8.74.29,19.12-8.44,23.2Z"/>
    <path class="cls-1" d="M85.45,98.39c-6.35-.15-11.36-5.5-11.36-11.85v-25.51c0-6.43,5.21-11.64,11.64-11.64h0c6.43,0,11.64,5.21,11.64,11.64v25.73c0,6.51-5.37,11.79-11.92,11.63Z"/>
  </g>
</svg>