<?xml version="1.0" encoding="UTF-8"?>
<svg id="Layer_1" data-name="Layer 1" xmlns="http://www.w3.org/2000/svg" viewBox="0 0 184.65 171.96">
  <defs>
    <style>
      .cls-1 {
        fill: #333;
        stroke-width: 0px;
      }
    </style>
  </defs>
  <g>
    <path class="cls-1" d="M104.94,58.12l-4.51,4.96,7.36,7.36-15.46,15.46-15.46-15.46,15.46-15.45h15.46v4.09l-1.01-1.01c-.51-.51-1.35-.49-1.84.04Z"/>
    <polygon class="cls-1" points="184.65 .38 184.65 28.84 174.11 39.38 143.06 70.44 104.38 109.67 104.38 109.67 104.38 146.22 92.33 158.27 80.66 146.6 80.66 109.67 80.66 109.67 41.6 70.44 10.26 39.09 0 28.83 0 .38 0 .38 6.78 6.97 10.26 10.44 12.98 13.17 21.53 21.71 70.36 70.54 92.33 92.51 114.3 70.54 163.14 21.71 171.68 13.17 184.65 .38 184.65 .38"/>
    <polygon class="cls-1" points="174.11 47 174.11 59.4 163.07 70.44 162.97 70.54 124.65 109.67 124.65 109.67 124.65 125.95 109.31 141.29 109.31 111.81 111.44 109.67 150.57 70.54 150.67 70.44 174.11 47"/>
    <polygon class="cls-1" points="75.72 112.17 75.72 141.65 60 125.93 60 109.67 60 109.67 21.69 70.54 10.26 59.11 10.26 46.71 34.09 70.54 73.22 109.67 75.72 112.17"/>
  </g>
  <path class="cls-1" d="M92.57,171.96c-47.41,0-85.98-38.57-85.98-85.98S45.16,0,92.57,0s85.98,38.57,85.98,85.98-38.57,85.98-85.98,85.98ZM92.57,8C49.57,8,14.59,42.98,14.59,85.98s34.98,77.98,77.98,77.98,77.98-34.98,77.98-77.98S135.57,8,92.57,8Z"/>
</svg>