<?xml version="1.0" encoding="UTF-8"?>
<svg id="Layer_2" data-name="Layer 2" xmlns="http://www.w3.org/2000/svg" viewBox="0 0 23.53 23.53">
  <defs>
    <style>
      .cls-1 {
        fill: #000;
      }

      .cls-1, .cls-2 {
        stroke-width: 0px;
      }

      .cls-2 {
        fill: #fff;
      }
    </style>
  </defs>
  <g id="Layer_1-2" data-name="Layer 1">
    <g>
      <circle class="cls-1" cx="11.76" cy="11.76" r="11.76"/>
      <path class="cls-2" d="M17.93,7.51c0-1.24-.51-2.37-1.35-3.27-1.03-1.09-2.5-1.67-4-1.67h-1.62c-1.51,0-2.98.58-4.01,1.67-.84.9-1.34,2.03-1.34,3.27,0,.14,0,.28.02.41h-.02v5.05c0,.35.28.63.63.63h1.33v1.95h-.48v-1.47h-.79v1.63c0,1.04.41,2.03,1.14,2.76l1.62,1.62c.31.31.72.48,1.15.48h3.1c.42,0,.84-.17,1.14-.48l1.62-1.62c.74-.73,1.15-1.72,1.15-2.76v-1.63h-.8v1.47h-.47v-1.95h1.33c.35,0,.63-.28.63-.63v-5.05h-.02c0-.13.02-.27.02-.41ZM7.32,11.37c0-.81.65-1.47,1.47-1.47s1.46.65,1.46,1.47-.65,1.47-1.46,1.47-1.47-.66-1.47-1.47ZM9.59,17.56c-.17,0-.32-.14-.32-.32s.15-.32.32-.32.32.14.32.32-.15.32-.32.32ZM9.59,16.48c-.17,0-.32-.15-.32-.32s.15-.32.32-.32.32.14.32.32-.15.32-.32.32ZM10.45,17.56c-.18,0-.32-.14-.32-.32s.14-.32.32-.32.32.14.32.32-.15.32-.32.32ZM10.45,16.48c-.18,0-.32-.15-.32-.32s.14-.32.32-.32.32.14.32.32-.15.32-.32.32ZM11.3,17.56c-.18,0-.32-.14-.32-.32s.14-.32.32-.32.32.14.32.32-.14.32-.32.32ZM11.3,16.48c-.18,0-.32-.15-.32-.32s.14-.32.32-.32.32.14.32.32-.14.32-.32.32ZM12.14,17.56c-.17,0-.32-.14-.32-.32s.14-.32.32-.32.32.14.32.32-.14.32-.32.32ZM12.14,16.48c-.17,0-.32-.15-.32-.32s.14-.32.32-.32.32.14.32.32-.14.32-.32.32ZM13,17.56c-.17,0-.32-.14-.32-.32s.14-.32.32-.32.32.14.32.32-.14.32-.32.32ZM13,16.48c-.17,0-.32-.15-.32-.32s.14-.32.32-.32.32.14.32.32-.14.32-.32.32ZM13.85,17.56c-.17,0-.32-.14-.32-.32s.15-.32.32-.32.32.14.32.32-.14.32-.32.32ZM13.85,16.48c-.17,0-.32-.15-.32-.32s.15-.32.32-.32.32.14.32.32-.14.32-.32.32ZM15.02,16.58h-.48v-.95c0-.41-.33-.74-.74-.74h-1.11c-.33,0-.61-.27-.61-.61v-.89c0-.17-.15-.32-.32-.32s-.32.15-.32.32v.89c0,.33-.27.61-.61.61h-1.11c-.41,0-.74.33-.74.74v.95h-.47v-.95c0-.67.54-1.22,1.21-1.22h1.11c.07,0,.13-.06.13-.12v-.89c0-.44.36-.8.8-.8s.8.36.8.8v.89c0,.07.06.12.13.12h1.11c.67,0,1.22.55,1.22,1.22v.95ZM14.74,12.84c-.81,0-1.47-.66-1.47-1.47s.65-1.47,1.47-1.47,1.46.65,1.46,1.47-.65,1.47-1.46,1.47Z"/>
    </g>
  </g>
</svg>