<?xml version="1.0" encoding="UTF-8"?>
<svg id="Layer_2" data-name="Layer 2" xmlns="http://www.w3.org/2000/svg" viewBox="0 0 14.88 21.73">
  <defs>
    <style>
      .cls-1 {
        fill: #fff;
        stroke-width: 0px;
      }
    </style>
  </defs>
  <g id="Layer_1-2" data-name="Layer 1">
    <path class="cls-1" d="M14.88,5.96c0-1.49-.61-2.86-1.63-3.94-1.24-1.32-3.02-2.02-4.83-2.02h-1.96c-1.82,0-3.59.7-4.84,2.02-1.01,1.08-1.62,2.45-1.62,3.94,0,.17.01.34.02.5h-.02v6.09c0,.42.34.76.76.76h1.61v2.35h-.58v-1.77h-.95v1.97c0,1.25.5,2.45,1.38,3.33l1.96,1.96c.37.37.87.58,1.39.58h3.74c.51,0,1.01-.21,1.38-.58l1.96-1.96c.89-.88,1.39-2.08,1.39-3.33v-1.97h-.96v1.77h-.57v-2.35h1.61c.42,0,.76-.34.76-.76v-6.09h-.02c.01-.16.02-.33.02-.5ZM2.08,10.61c0-.98.79-1.77,1.77-1.77s1.76.79,1.76,1.77-.79,1.77-1.76,1.77-1.77-.8-1.77-1.77ZM4.82,18.08c-.21,0-.39-.17-.39-.38s.18-.39.39-.39.39.17.39.39-.18.38-.39.38ZM4.82,16.77c-.21,0-.39-.18-.39-.39s.18-.39.39-.39.39.17.39.39-.18.39-.39.39ZM5.85,18.08c-.22,0-.39-.17-.39-.38s.17-.39.39-.39.39.17.39.39-.18.38-.39.38ZM5.85,16.77c-.22,0-.39-.18-.39-.39s.17-.39.39-.39.39.17.39.39-.18.39-.39.39ZM6.88,18.08c-.22,0-.39-.17-.39-.38s.17-.39.39-.39.38.17.38.39-.17.38-.38.38ZM6.88,16.77c-.22,0-.39-.18-.39-.39s.17-.39.39-.39.38.17.38.39-.17.39-.38.39ZM7.9,18.08c-.21,0-.38-.17-.38-.38s.17-.39.38-.39.39.17.39.39-.17.38-.39.38ZM7.9,16.77c-.21,0-.38-.18-.38-.39s.17-.39.38-.39.39.17.39.39-.17.39-.39.39ZM8.93,18.08c-.21,0-.38-.17-.38-.38s.17-.39.38-.39.39.17.39.39-.17.38-.39.38ZM8.93,16.77c-.21,0-.38-.18-.38-.39s.17-.39.38-.39.39.17.39.39-.17.39-.39.39ZM9.96,18.08c-.21,0-.39-.17-.39-.38s.18-.39.39-.39.39.17.39.39-.17.38-.39.38ZM9.96,16.77c-.21,0-.39-.18-.39-.39s.18-.39.39-.39.39.17.39.39-.17.39-.39.39ZM11.37,16.89h-.58v-1.15c0-.49-.4-.89-.89-.89h-1.34c-.4,0-.73-.33-.73-.73v-1.07c0-.21-.18-.39-.39-.39s-.39.18-.39.39v1.07c0,.4-.33.73-.74.73h-1.34c-.49,0-.89.4-.89.89v1.15h-.57v-1.15c0-.81.65-1.47,1.46-1.47h1.34c.09,0,.16-.07.16-.15v-1.07c0-.53.43-.96.97-.96s.96.43.96.96v1.07c0,.08.07.15.16.15h1.34c.81,0,1.47.66,1.47,1.47v1.15ZM11.03,12.38c-.98,0-1.77-.8-1.77-1.77s.79-1.77,1.77-1.77,1.76.79,1.76,1.77-.79,1.77-1.76,1.77Z"/>
  </g>
</svg>